<?xml version="1.0" encoding="utf-8"?>
<!-- Generator: Adobe Illustrator 25.3.1, SVG Export Plug-In . SVG Version: 6.00 Build 0)  -->
<svg version="1.1" id="Layer_1" xmlns="http://www.w3.org/2000/svg" xmlns:xlink="http://www.w3.org/1999/xlink" x="0px" y="0px"
	 viewBox="0 0 198 270" style="enable-background:new 0 0 198 270;" xml:space="preserve">
<style type="text/css">
	.st0{opacity:0.8;fill:none;stroke:#FFFFFF;stroke-width:2.6872;stroke-linejoin:round;stroke-miterlimit:10;}
</style>
<polyline class="st0" points="-2,30.6 18.3,45.1 38.4,30.6 38.4,30.7 58.8,16.2 78.8,30.7 78.8,30.6 99.2,45.1 119.2,30.6 
	119.2,30.7 139.6,16.2 159.6,30.7 159.6,30.6 179.9,45.1 200,30.6 200,16.2 179.9,30.6 159.6,16.2 139.6,1.9 119.2,16.2 99.2,30.6 
	78.8,16.2 58.8,1.9 38.4,16.2 18.3,30.6 -2,16.2 -2,1.9 18.3,16.2 38.4,1.9 38.4,0 38.4,270 38.4,262.9 38.4,260.9 58.8,246.5 
	78.8,260.9 78.8,262.9 78.8,270 78.8,0 78.8,1.9 99.2,16.2 119.2,1.9 119.2,0 119.2,270 119.2,262.9 119.2,260.9 139.6,246.5 
	159.6,260.9 159.6,262.9 159.6,270 159.6,0 159.6,1.9 179.9,16.2 200,1.9 200,45.1 179.9,59.4 159.6,45.1 139.6,30.7 119.2,45.1 
	99.2,59.4 78.8,45.1 58.8,30.7 38.4,45.1 18.3,59.4 -2,45.1 -2,59.4 18.3,73.8 38.4,59.4 58.8,45.1 78.8,59.4 99.2,73.8 119.2,59.4 
	139.6,45.1 159.6,59.4 179.9,73.8 200,59.4 200,73.8 179.9,88.2 159.6,73.8 139.6,59.4 119.2,73.8 99.2,88.2 78.8,73.8 58.8,59.4 
	38.4,73.8 18.3,88.2 -2,73.8 -2,88.2 18.3,102.6 38.4,88.2 38.4,88.3 58.8,73.8 78.8,88.3 78.8,88.2 99.2,102.6 119.2,88.2 
	119.2,88.3 139.6,73.8 159.6,88.3 159.6,88.2 179.9,102.6 200,88.2 200,102.6 179.9,117 159.6,102.6 139.6,88.3 119.2,102.6 
	99.2,117 78.8,102.6 58.8,88.3 38.4,102.6 18.3,117 -2,102.6 -2,117 18.3,131.4 38.4,117 58.8,102.6 78.8,117 99.2,131.4 119.2,117 
	139.6,102.6 159.6,117 179.9,131.4 200,117 200,131.4 179.9,145.8 159.6,131.4 139.6,117 119.2,131.4 99.2,145.8 78.8,131.4 
	58.8,117 38.4,131.4 18.3,145.8 -2,131.4 -2,145.8 18.3,160.2 38.4,145.8 58.8,131.4 78.8,145.8 99.2,160.2 119.2,145.8 
	139.6,131.4 159.6,145.8 179.9,160.2 200,145.8 200,189 179.9,203.3 159.6,189 139.6,174.6 119.2,189 99.2,203.3 78.8,189 
	58.8,174.6 38.4,189 18.3,203.3 -2,189 -2,203.3 18.3,217.7 38.4,203.3 58.8,189 78.8,203.3 99.2,217.7 119.2,203.3 139.6,189 
	159.6,203.3 179.9,217.7 200,203.3 200,217.7 179.9,232.2 159.6,217.7 159.6,217.8 139.6,203.3 119.2,217.8 119.2,217.7 99.2,232.2 
	78.8,217.7 78.8,217.8 58.8,203.3 38.4,217.8 38.4,217.7 18.3,232.2 -2,217.7 -2,232.2 18.3,246.5 38.4,232.2 58.8,217.8 
	78.8,232.2 99.2,246.5 119.2,232.2 139.6,217.8 159.6,232.2 179.9,246.5 200,232.2 200,246.5 179.9,260.9 159.6,246.5 139.6,232.2 
	119.2,246.5 99.2,260.9 78.8,246.5 58.8,232.2 38.4,246.5 18.3,260.9 -2,246.5 -2,174.6 18.3,189 38.4,174.6 58.8,160.2 78.8,174.6 
	99.2,189 119.2,174.6 139.6,160.2 159.6,174.6 179.9,189 200,174.6 200,160.2 179.9,174.6 159.6,160.2 139.6,145.8 119.2,160.2 
	99.2,174.6 78.8,160.2 58.8,145.8 38.4,160.2 18.3,174.6 -2,160.2 "/>
</svg>
