<?xml version="1.0" encoding="utf-8"?>
<!-- Generator: Adobe Illustrator 25.3.1, SVG Export Plug-In . SVG Version: 6.00 Build 0)  -->
<svg version="1.1" id="Layer_1" xmlns="http://www.w3.org/2000/svg" xmlns:xlink="http://www.w3.org/1999/xlink" x="0px" y="0px"
	 viewBox="0 0 825 1200" style="enable-background:new 0 0 825 1200;" xml:space="preserve">
<style type="text/css">
	.st0{fill:none;}
	.st1{fill-rule:evenodd;clip-rule:evenodd;fill-opacity:0.15;}
	.st2{enable-background:new    ;}
	.st3{fill:#2F0604;}
	.st4{fill:#300604;}
	.st5{clip-path:url(#SVGID_2_);enable-background:new    ;}
	.st6{fill:#2A0604;}
	.st7{clip-path:url(#SVGID_4_);enable-background:new    ;}
	.st8{fill:#350705;}
	.st9{fill:#540B08;}
	.st10{fill:#330705;}
	.st11{fill:#3D0806;stroke:#3D0806;stroke-miterlimit:10;}
	.st12{clip-path:url(#SVGID_6_);enable-background:new    ;}
	.st13{fill:#5E0D09;}
	.st14{clip-path:url(#SVGID_8_);enable-background:new    ;}
	.st15{fill:#3B0805;}
	.st16{fill:#FFFFF8;}
	.st17{opacity:5.000000e-02;}
	.st18{opacity:0.15;}
</style>
<rect class="st0" width="825" height="1200"/>
<g>
	<g>
		<path class="st1" d="M194.8,242.4L194.8,242.4L121,692.7l64,84.7h469.6L718,714l-6.7-449.4"/>
	</g>
	<g>
		<g class="st2">
			<g>
				<rect x="185.4" y="178.3" class="st3" width="450.1" height="0"/>
			</g>
			<g>
				<polygon class="st4" points="630.5,745.1 635.5,757.1 185.4,757.1 190.4,745.1 				"/>
			</g>
			<g class="st2">
				<defs>
					<path id="SVGID_1_" class="st2" d="M687.9,687.8l12,5c-25.1,25.2-39.2,39.2-64.4,64.4l-5-12
						C652.1,723.5,666.2,709.4,687.9,687.8z"/>
				</defs>
				<clipPath id="SVGID_2_">
					<use xlink:href="#SVGID_1_"  style="overflow:visible;"/>
				</clipPath>
				<g class="st5">
					<path class="st6" d="M687.9,687.8l12,5c-25.1,25.2-39.2,39.2-64.4,64.4l-5-12C652.1,723.5,666.2,709.4,687.9,687.8"/>
				</g>
			</g>
			<g class="st2">
				<defs>
					<path id="SVGID_3_" class="st2" d="M190.4,745.1l-5,12c-25.1-25.2-39.2-39.2-64.4-64.4l12-5
						C154.6,709.4,168.7,723.5,190.4,745.1z"/>
				</defs>
				<clipPath id="SVGID_4_">
					<use xlink:href="#SVGID_3_"  style="overflow:visible;"/>
				</clipPath>
				<g class="st7">
					<path class="st8" d="M190.4,745.1l-5,12c-25.1-25.2-39.2-39.2-64.4-64.4l12-5C154.6,709.4,168.7,723.5,190.4,745.1"/>
				</g>
			</g>
			<g>
				<polygon class="st9" points="133,687.8 121,692.7 121,242.6 133,247.6 				"/>
			</g>
			<g>
				<polygon class="st10" points="687.9,247.6 699.9,242.6 699.9,692.7 687.9,687.8 				"/>
			</g>
			<g>
				<path class="st11" d="M630.5,190.3c21.6,21.6,35.7,35.7,57.4,57.3v440.2c-21.6,21.6-35.7,35.7-57.4,57.4H190.4
					c-21.6-21.6-35.7-35.7-57.4-57.4V247.6c21.6-21.6,35.7-35.7,57.4-57.3H630.5z"/>
			</g>
			<g class="st2">
				<defs>
					<path id="SVGID_5_" class="st2" d="M133,247.6l-12-5c25.1-25.1,39.2-39.2,64.4-64.4l5,12C168.7,211.9,154.6,226,133,247.6z"/>
				</defs>
				<clipPath id="SVGID_6_">
					<use xlink:href="#SVGID_5_"  style="overflow:visible;"/>
				</clipPath>
				<g class="st12">
					<path class="st13" d="M133,247.6l-12-5c25.1-25.1,39.2-39.2,64.4-64.4l5,12C168.7,211.9,154.6,226,133,247.6"/>
				</g>
			</g>
			<g>
				<polygon class="st9" points="190.4,190.3 185.4,178.3 635.5,178.3 630.5,190.3 				"/>
			</g>
			<g class="st2">
				<defs>
					<path id="SVGID_7_" class="st2" d="M630.5,190.3l5-12c25.1,25.1,39.2,39.2,64.4,64.4l-12,5C666.2,226,652.1,211.9,630.5,190.3z
						"/>
				</defs>
				<clipPath id="SVGID_8_">
					<use xlink:href="#SVGID_7_"  style="overflow:visible;"/>
				</clipPath>
				<g class="st14">
					<path class="st15" d="M630.5,190.3l5-12c25.1,25.1,39.2,39.2,64.4,64.4l-12,5C666.2,226,652.1,211.9,630.5,190.3"/>
				</g>
			</g>
		</g>
	</g>
	<circle vector-effect="non-scaling-stroke" class="st16" cx="410.4" cy="467.7" r="218.9"/>
	<path class="st17" d="M626.6,456.8c0,119.8-101.7,217-227.1,216.9c-48.3,0-93.1-14.5-129.9-39.1c38,32.9,87.6,52.7,141.8,52.8
		c119.8,0,218-95.7,218-215.5c0-12.4-0.4-24.8-2.4-36.7C627.8,442.7,626.6,449.1,626.6,456.8z"/>
	<g>
		<rect x="402.5" y="264.6" width="15.8" height="38.7"/>
		<rect x="402.5" y="632.1" width="15.8" height="38.7"/>
		<rect x="574.8" y="459.8" width="38.7" height="15.8"/>
		<rect x="207.4" y="459.8" width="38.7" height="15.8"/>
		<rect x="492.1" y="299.4" transform="matrix(0.5 -0.866 0.866 0.5 -10.0372 589.3127)" width="26.5" height="7.9"/>
		<rect x="561.5" y="368.9" transform="matrix(0.866 -0.5 0.5 0.866 -109.412 337.3646)" width="26.5" height="7.9"/>
		<rect x="570.8" y="549" transform="matrix(0.5 -0.866 0.866 0.5 -199.5869 778.829)" width="7.9" height="26.5"/>
		<rect x="501.3" y="619" transform="matrix(0.866 -0.5 0.5 0.866 -248.4577 337.3462)" width="7.9" height="26.5"/>
		<rect x="302.3" y="628" transform="matrix(0.5 -0.866 0.866 0.5 -389.5487 589.2387)" width="26.5" height="7.9"/>
		<rect x="232.8" y="558.6" transform="matrix(0.866 -0.5 0.5 0.866 -248.2857 198.4191)" width="26.5" height="7.9"/>
		<rect x="242.1" y="359.5" transform="matrix(0.5 -0.866 0.866 0.5 -199.8027 399.4483)" width="7.9" height="26.5"/>
		<rect x="311.5" y="290.2" transform="matrix(0.866 -0.5 0.5 0.866 -109.4665 198.3927)" width="7.9" height="26.5"/>
		<path d="M418.3,465.5v113.7h-15.8V467.7l-79.2-142.4l6.8-4L418.3,465.5z"/>
	</g>
	<path class="st18" d="M193.3,476.8c0-119.8,101.6-217,227-217c48.3,0,93.1,14.5,129.9,39.1c-38-32.9-87.6-52.7-141.8-52.7
		c-119.8,0-217,97.1-217,217c0,12.4,0.3,24.5,2.4,36.3C193,491.9,193.3,484.5,193.3,476.8z"/>
</g>
</svg>
