<?xml version="1.0" encoding="utf-8"?>
<!-- Generator: Adobe Illustrator 25.3.1, SVG Export Plug-In . SVG Version: 6.00 Build 0)  -->
<svg version="1.1" id="Layer_1" xmlns="http://www.w3.org/2000/svg" xmlns:xlink="http://www.w3.org/1999/xlink" x="0px" y="0px"
	 viewBox="0 0 825 1200" style="enable-background:new 0 0 825 1200;" xml:space="preserve">
<style type="text/css">
	.st0{clip-path:url(#SVGID_2_);}
	.st1{fill-opacity:0.15;}
	.st2{fill:#FBBD60;}
	.st3{fill:#DB9F44;}
	.st4{fill:#F7F6F6;}
	.st5{fill:#FFD79B;}
	.st6{fill:#FFD7D7;}
	.st7{fill:#F0F0F0;}
	.st8{fill:none;}
	.st9{fill:#773C9D;}
	.st10{opacity:0.6;fill:#FFFFFF;}
</style>
<g>
	<defs>
		<rect id="SVGID_1_" width="825" height="1200"/>
	</defs>
	<clipPath id="SVGID_2_">
		<use xlink:href="#SVGID_1_"  style="overflow:visible;"/>
	</clipPath>
	<g class="st0">
		<g>
			<path class="st1" d="M117,765.6V271.4c0-3,2.4-5.4,5.4-5.4h622c3,0,5.4,2.4,5.4,5.4v494.2c0,3-2.4,5.4-5.4,5.4h-622
				C119.4,770.9,117,768.5,117,765.6z"/>
		</g>
		<rect x="92.7" y="242.9" class="st2" width="632.8" height="504.9"/>
		<g>
			<path class="st3" d="M730.2,747.7V243.9c0-2.8-2.3-5.1-5.1-5.1H92.3c-2.8,0-5.1,2.3-5.1,5.1v503.8c0,2.8,2.3,5.1,5.1,5.1h632.8
				C727.9,752.9,730.2,750.6,730.2,747.7z M720,742.6H97.4V249H720V742.6L720,742.6z"/>
			<rect x="125.3" y="279.5" class="st4" width="567.7" height="438.2"/>
			<path class="st5" d="M119.9,279.3V719c0,2.8,2.3,5.1,5.1,5.1h568c2.8,0,5.1-2.3,5.1-5.1V279.3c0-2.8-2.3-5.1-5.1-5.1h-568
				C122.2,274.2,119.9,276.5,119.9,279.3z M130.2,284.5h557.7v429.4H130.2V284.5z"/>
			<rect x="234.6" y="376.2" class="st6" width="348.8" height="245.2"/>
			<path class="st7" d="M588.6,622.1V376.2c0-2.8-2.3-5.1-5.1-5.1H234.6c-2.8,0-5.1,2.3-5.1,5.1v245.9c0,2.8,2.3,5.1,5.1,5.1h348.8
				C586.3,627.2,588.6,624.9,588.6,622.1z M578.3,617H239.8V381.4h338.5L578.3,617L578.3,617z"/>
		</g>
		<g>
			<rect x="333.2" y="422.5" class="st8" width="158.5" height="158.5"/>
			<g>
				<path class="st9" d="M445.4,456.1l24.9-1l-0.1-1.8l-25.5,1c-0.1-0.3-0.2-0.5-0.3-0.8l25.5-3.6l-0.2-1.7l-25.9,3.6
					c-0.1-0.2-0.2-0.5-0.3-0.7L469,445l-0.4-1.7l-25.8,6.3c-6.8-16.4-12.2-27-12.2-27l-5.7,9.2h-24.7l-5.7-9.2
					c0,0-5.4,10.6-12.1,26.9l-25.3-6.2l0,0.1l-0.5-0.1L356,445l25.6,6.2c-0.1,0.2-0.2,0.4-0.2,0.6l-25.4-3.6l0,0.1l-0.5-0.1
					l-0.2,1.7l25.5,3.6c-0.1,0.2-0.2,0.5-0.3,0.7l-24.9-1v0l-0.6,0l-0.1,1.8l24.9,1c-6.2,15.7-13.1,35.5-17.8,55.9
					c-5.5,24.3-2.8,42.1,1,53.6h-7.4c-4.3,0-7.8,3.5-7.8,7.8c0,4.3,3.5,7.8,7.8,7.8h15.3h6.2h77.5c0,0,19.4-22.9,8.8-69.1
					C458.5,491.6,451.6,471.8,445.4,456.1z M399.8,445.8c-2-0.2-3.8-1.3-5-2.8c1.2-1.6,3-2.6,5-2.8V445.8z M401.4,445.8v-5.7
					c2,0.2,3.8,1.3,5,2.8C405.2,444.6,403.4,445.6,401.4,445.8z M412.5,453l-3-5.3h6.1L412.5,453z M423.7,445.9
					c-2.1-0.2-3.9-1.3-5.1-2.8c1.2-1.6,3-2.6,5.1-2.8V445.9z M425.3,445.8v-5.7c2,0.2,3.8,1.3,5,2.8
					C429.1,444.6,427.3,445.6,425.3,445.8z"/>
			</g>
		</g>
	</g>
</g>
<polygon class="st10" points="178.1,713.9 157.9,713.9 405.8,284.5 426,284.5 "/>
<polygon class="st10" points="188,713.9 183,713.9 430.6,284.9 435.2,284.9 "/>
</svg>
