<?xml version="1.0" encoding="utf-8"?>
<!-- Generator: Adobe Illustrator 25.3.1, SVG Export Plug-In . SVG Version: 6.00 Build 0)  -->
<svg version="1.1" id="Layer_1" xmlns="http://www.w3.org/2000/svg" xmlns:xlink="http://www.w3.org/1999/xlink" x="0px" y="0px"
	 viewBox="0 0 180 252" style="enable-background:new 0 0 180 252;" xml:space="preserve">
<style type="text/css">
	.st0{opacity:0.5;}
	.st1{fill:none;stroke:#000000;stroke-miterlimit:10;}
</style>
<g class="st0">
	<g>
		<path class="st1" d="M128.2,74.1c0-7.3,5.9-13.3,13.3-13.3c7.3,0,13.3,5.9,13.3,13.3"/>
		<path class="st1" d="M124,74.1c0-9.6,7.8-17.4,17.4-17.4c9.6,0,17.4,7.8,17.4,17.4"/>
		<path class="st1" d="M119.1,74.1c0-12.3,10-22.4,22.4-22.4c12.3,0,22.4,10,22.4,22.4"/>
		<path class="st1" d="M114.3,74.1c0-15,12.2-27.2,27.2-27.2c15,0,27.2,12.2,27.2,27.2"/>
		<path class="st1" d="M108.9,74.1c0-17.7,14.3-32,32-32s32,14.3,32,32"/>
		<path class="st1" d="M104.5,74.1c0-6.5,1.3-11.8,4.2-17.1"/>
		<path class="st1" d="M174.9,58c2.4,4.9,3.7,10.3,3.7,16.1"/>
		<path class="st1" d="M123.3,41.9c5.6-3.4,11.3-4.9,18.3-4.9c5.9,0,10.8,1.1,15.8,3.5"/>
		<path class="st1" d="M191,36.6c-7.3,0-13.3-4.2-13.3-11.6"/>
		<path class="st1" d="M191,41.5c-9.6,0-17.4-6.9-17.4-16.5"/>
		<path class="st1" d="M191,46.6c-12.3,0-22.4-9.3-22.4-21.6"/>
		<path class="st1" d="M190.8,51.6c-15,0-27-11.6-27-26.6"/>
		<path class="st1" d="M190.8,56.5C173.1,56.5,159,42.7,159,25"/>
		<path class="st1" d="M190.8,61.6c-20.5,0-36.9-16.1-36.9-36.6"/>
		<path class="st1" d="M127.4,25c0-7.3,5.9-13.3,13.3-13.3s13.3,5.9,13.3,13.3"/>
		<path class="st1" d="M124.1,25c0-9.6,7.8-17.4,17.4-17.4c9.6,0,17.4,7.8,17.4,17.4"/>
		<path class="st1" d="M119.1,25c0-12.3,10-22.4,22.4-22.4c12.3,0,22.4,10,22.4,22.4"/>
		<path class="st1" d="M114.3,25c0-15,12.2-27.2,27.2-27.2c15,0,27.2,12.2,27.2,27.2"/>
		<path class="st1" d="M109.6,25c0-17.7,14.3-32,32-32s32,14.3,32,32"/>
		<path class="st1" d="M103.6,25c0-20.5,16.6-37,37-37s37,16.6,37,37"/>
		<path class="st1" d="M103.6,24.8c0,7.3-5.9,11.9-13.3,11.9"/>
		<path class="st1" d="M109.6,24.8c0,9.6-9.6,16.7-19.2,16.7"/>
		<path class="st1" d="M114.3,24.8c0,12.3-11.6,21.7-23.9,21.7"/>
		<path class="st1" d="M119.1,24.8c0,15-13.7,26.7-28.7,26.7"/>
		<path class="st1" d="M124.1,24.7c0,17.7-16.1,31.8-33.8,31.8"/>
		<path class="st1" d="M127.4,24.8c0,20.5-16.6,37-37,37"/>
		<path class="st1" d="M119.2-26.2c0,15-13.9,27.8-28.9,27.8"/>
		<path class="st1" d="M124-26.2c0,17.7-16,32.6-33.7,32.6"/>
		<path class="st1" d="M108.2,7.4c-4.9,2.4-11.9,4.4-17.8,4.4"/>
		<path class="st1" d="M191.1,1.6C176.1,1.6,164-11,164-26"/>
		<path class="st1" d="M191,6.7c-17.7,0-31.8-15-31.8-32.7"/>
		<path class="st1" d="M191.1,11.8c-5.9,0-13.2-1.5-17.8-4.4"/>
	</g>
	<g>
		<path class="st1" d="M27.4,74.1c0-7.3,5.9-13.3,13.3-13.3s13.3,5.9,13.3,13.3"/>
		<path class="st1" d="M23.2,74.1c0-9.6,7.8-17.4,17.4-17.4s17.4,7.8,17.4,17.4"/>
		<path class="st1" d="M18.3,74.1c0-12.3,10-22.4,22.4-22.4S63,61.8,63,74.1"/>
		<path class="st1" d="M13.5,74.1c0-15,12.2-27.2,27.2-27.2s27.2,12.2,27.2,27.2"/>
		<path class="st1" d="M8.1,74.1c0-17.7,14.3-32,32-32s32,14.3,32,32"/>
		<path class="st1" d="M3.8,74.1C3.8,67.6,5,62.3,7.9,57"/>
		<path class="st1" d="M74.2,58.2c2.4,4.9,3.6,10.1,3.6,16"/>
		<path class="st1" d="M22.5,41.9c5.6-3.4,11.3-4.9,18.3-4.9c5.9,0,10.8,1.1,15.8,3.5"/>
		<path class="st1" d="M90.3,36.7c-7.3,0-13.4-4.4-13.4-11.7"/>
		<path class="st1" d="M90.3,41.5c-9.6,0-17.6-6.9-17.6-16.5"/>
		<path class="st1" d="M90.3,46.5C78,46.5,67.8,37.3,67.8,25"/>
		<path class="st1" d="M90.3,51.5C75.3,51.5,63,40,63,25"/>
		<path class="st1" d="M90.3,56.5c-17.7,0-32.2-13.8-32.2-31.5"/>
		<path class="st1" d="M90.3,61.8c-20.5,0-37.2-16.4-37.2-36.8"/>
		<path class="st1" d="M26.6,25c0-7.3,5.9-13.3,13.3-13.3S53.1,17.7,53.1,25"/>
		<path class="st1" d="M23.3,25c0-9.6,7.8-17.4,17.4-17.4S58.2,15.4,58.2,25"/>
		<path class="st1" d="M18.3,25c0-12.3,10-22.4,22.4-22.4S63,12.7,63,25"/>
		<path class="st1" d="M13.5,25c0-15,12.2-27.2,27.2-27.2S67.8,10,67.8,25"/>
		<path class="st1" d="M8.8,25c0-17.7,14.3-32,32-32s32,14.3,32,32"/>
		<path class="st1" d="M2.8,25c0-20.5,16.6-37,37-37s37,16.6,37,37"/>
		<path class="st1" d="M2.8,24.8c0,7.3-5.9,11.9-13.3,11.9"/>
		<path class="st1" d="M8.8,24.8c0,9.6-9.6,16.7-19.2,16.7"/>
		<path class="st1" d="M13.5,24.8c0,12.3-11.6,21.7-23.9,21.7"/>
		<path class="st1" d="M18.3,24.8c0,15-13.7,26.7-28.7,26.7"/>
		<path class="st1" d="M23.3,24.7c0,17.7-16.1,31.8-33.8,31.8"/>
		<path class="st1" d="M26.6,24.8c0,20.5-16.6,37-37,37"/>
		<path class="st1" d="M18.4-26.2c0,15-13.9,27.8-28.9,27.8"/>
		<path class="st1" d="M23.2-26.2c0,17.7-16,32.6-33.7,32.6"/>
		<path class="st1" d="M7.4,7.4c-4.9,2.4-11.9,4.4-17.8,4.4"/>
		<path class="st1" d="M90.3,1.6C75.3,1.6,63.2-11,63.2-26"/>
		<path class="st1" d="M90.3,6.5c-17.7,0-32-14.8-32-32.5"/>
		<path class="st1" d="M90.3,11.7c-5.9,0-13.2-1.4-17.8-4.3"/>
	</g>
	<g>
		<path class="st1" d="M128.2,174.4c0-7.3,5.9-13.3,13.3-13.3c7.3,0,13.3,5.9,13.3,13.3"/>
		<path class="st1" d="M124,174.4c0-9.6,7.8-17.4,17.4-17.4c9.6,0,17.4,7.8,17.4,17.4"/>
		<path class="st1" d="M119.1,174.4c0-12.3,10-22.4,22.4-22.4c12.3,0,22.4,10,22.4,22.4"/>
		<path class="st1" d="M114.3,174.4c0-15,12.2-27.2,27.2-27.2c15,0,27.2,12.2,27.2,27.2"/>
		<path class="st1" d="M108.9,174.4c0-17.7,14.3-32,32-32s32,14.3,32,32"/>
		<path class="st1" d="M104.5,174.4c0-6.5,1.3-11.8,4.2-17.1"/>
		<path class="st1" d="M174.9,158.2c2.4,4.9,3.7,10.3,3.7,16.1"/>
		<path class="st1" d="M123.3,142.2c5.6-3.4,11.3-4.9,18.3-4.9c5.9,0,10.8,1.1,15.8,3.5"/>
		<path class="st1" d="M191,136.8c-7.3,0-13.3-4.2-13.3-11.6"/>
		<path class="st1" d="M191,141.8c-9.6,0-17.4-6.9-17.4-16.5"/>
		<path class="st1" d="M191,146.9c-12.3,0-22.4-9.3-22.4-21.6"/>
		<path class="st1" d="M190.8,151.8c-15,0-27-11.6-27-26.6"/>
		<path class="st1" d="M190.8,156.8c-17.7,0-31.8-13.9-31.8-31.5"/>
		<path class="st1" d="M190.8,161.9c-20.5,0-36.9-16.1-36.9-36.6"/>
		<path class="st1" d="M127.4,125.3c0-7.3,5.9-13.3,13.3-13.3s13.3,5.9,13.3,13.3"/>
		<path class="st1" d="M124.1,125.3c0-9.6,7.8-17.4,17.4-17.4c9.6,0,17.4,7.8,17.4,17.4"/>
		<path class="st1" d="M119.1,125.3c0-12.3,10-22.4,22.4-22.4c12.3,0,22.4,10,22.4,22.4"/>
		<path class="st1" d="M114.3,125.3c0-15,12.2-27.2,27.2-27.2c15,0,27.2,12.2,27.2,27.2"/>
		<path class="st1" d="M109.6,125.3c0-17.7,14.3-32,32-32s32,14.3,32,32"/>
		<path class="st1" d="M103.6,125.3c0-20.5,16.6-37,37-37s37,16.6,37,37"/>
		<path class="st1" d="M103.6,125.1c0,7.3-5.9,11.9-13.3,11.9"/>
		<path class="st1" d="M109.6,125.1c0,9.6-9.6,16.7-19.2,16.7"/>
		<path class="st1" d="M114.3,125.1c0,12.3-11.6,21.7-23.9,21.7"/>
		<path class="st1" d="M119.1,125.1c0,15-13.7,26.7-28.7,26.7"/>
		<path class="st1" d="M124.1,125c0,17.7-16.1,31.8-33.8,31.8"/>
		<path class="st1" d="M127.4,125.1c0,20.5-16.6,37-37,37"/>
		<path class="st1" d="M104.5,74.1c0,7.3-6.9,12.7-14.2,12.7"/>
		<path class="st1" d="M108.9,74.1c0,9.6-9.1,18-18.7,18"/>
		<path class="st1" d="M114.3,74.1c0,12.3-11.6,22.9-23.9,22.9"/>
		<path class="st1" d="M119.1,74.1c0,15-13.7,27.8-28.7,27.8"/>
		<path class="st1" d="M124,74.1c0,17.7-16.2,32.9-33.8,32.9"/>
		<path class="st1" d="M108.2,107.6c-4.9,2.4-11.9,4.4-17.8,4.4"/>
		<path class="st1" d="M128.2,74.1c0,5.9-1.5,13.8-4.4,18.5"/>
		<path class="st1" d="M190.8,86.8c-7.3,0-12.2-5.3-12.2-12.7"/>
		<path class="st1" d="M191,92.1c-9.6,0-18.1-8.4-18.1-18"/>
		<path class="st1" d="M191.1,97c-12.3,0-22.5-10.6-22.5-22.9"/>
		<path class="st1" d="M191.1,101.9c-15,0-27.3-12.8-27.3-27.8"/>
		<path class="st1" d="M191,107c-17.7,0-32.1-15.2-32.1-32.9"/>
		<path class="st1" d="M158.8,93c-2.4-4.9-4.2-13-4.2-18.9"/>
		<path class="st1" d="M191.1,112.1c-5.9,0-13.2-1.5-17.8-4.4"/>
	</g>
	<g>
		<path class="st1" d="M27.4,174.4c0-7.3,5.9-13.3,13.3-13.3s13.3,5.9,13.3,13.3"/>
		<path class="st1" d="M23.2,174.4c0-9.6,7.8-17.4,17.4-17.4s17.4,7.8,17.4,17.4"/>
		<path class="st1" d="M18.3,174.4c0-12.3,10-22.4,22.4-22.4S63,162,63,174.4"/>
		<path class="st1" d="M13.5,174.4c0-15,12.2-27.2,27.2-27.2s27.2,12.2,27.2,27.2"/>
		<path class="st1" d="M8.1,174.4c0-17.7,14.3-32,32-32s32,14.3,32,32"/>
		<path class="st1" d="M3.8,174.4c0-6.5,1.3-11.8,4.2-17.1"/>
		<path class="st1" d="M74.2,158.4c2.4,4.9,3.6,10.1,3.6,16"/>
		<path class="st1" d="M22.5,142.2c5.6-3.4,11.3-4.9,18.3-4.9c5.9,0,10.8,1.1,15.8,3.5"/>
		<path class="st1" d="M90.3,137c-7.3,0-13.4-4.4-13.4-11.7"/>
		<path class="st1" d="M90.3,141.8c-9.6,0-17.6-6.9-17.6-16.5"/>
		<path class="st1" d="M90.3,146.7c-12.3,0-22.5-9.1-22.5-21.5"/>
		<path class="st1" d="M90.3,151.8c-15,0-27.3-11.5-27.3-26.5"/>
		<path class="st1" d="M90.3,156.8c-17.7,0-32.2-13.8-32.2-31.5"/>
		<path class="st1" d="M90.3,162.1c-20.5,0-37.2-16.4-37.2-36.8"/>
		<path class="st1" d="M26.6,125.3c0-7.3,5.9-13.3,13.3-13.3s13.3,5.9,13.3,13.3"/>
		<path class="st1" d="M23.3,125.3c0-9.6,7.8-17.4,17.4-17.4s17.4,7.8,17.4,17.4"/>
		<path class="st1" d="M18.3,125.3c0-12.3,10-22.4,22.4-22.4s22.4,10,22.4,22.4"/>
		<path class="st1" d="M13.5,125.3c0-15,12.2-27.2,27.2-27.2s27.2,12.2,27.2,27.2"/>
		<path class="st1" d="M8.8,125.3c0-17.7,14.3-32,32-32s32,14.3,32,32"/>
		<path class="st1" d="M2.8,125.3c0-20.5,16.6-37,37-37s37,16.6,37,37"/>
		<path class="st1" d="M2.8,125.1c0,7.3-5.9,11.9-13.3,11.9"/>
		<path class="st1" d="M8.8,125.1c0,9.6-9.6,16.7-19.2,16.7"/>
		<path class="st1" d="M13.5,125.1c0,12.3-11.6,21.7-23.9,21.7"/>
		<path class="st1" d="M18.3,125.1c0,15-13.7,26.7-28.7,26.7"/>
		<path class="st1" d="M23.3,125c0,17.7-16.1,31.8-33.8,31.8"/>
		<path class="st1" d="M26.6,125.1c0,20.5-16.6,37-37,37"/>
		<path class="st1" d="M3.8,74.1c0,7.3-6.9,12.7-14.2,12.7"/>
		<path class="st1" d="M8.1,74.1c0,9.6-8.9,17.7-18.5,17.7"/>
		<path class="st1" d="M13.5,74.1c0,12.3-11.6,22.7-23.9,22.7"/>
		<path class="st1" d="M18.3,74.1c0,15-13.7,27.8-28.7,27.8"/>
		<path class="st1" d="M23.2,74.1c0,17.7-16,32.6-33.7,32.6"/>
		<path class="st1" d="M7.4,107.6c-4.9,2.4-11.9,4.4-17.8,4.4"/>
		<path class="st1" d="M27.4,74.1c0,5.9-1.5,13.8-4.4,18.5"/>
		<path class="st1" d="M90.3,86.8c-7.3,0-12.5-5.3-12.5-12.7"/>
		<path class="st1" d="M90.2,92.1c-9.6,0-18.1-8.4-18.1-18"/>
		<path class="st1" d="M90.3,97C78,97,67.8,86.5,67.8,74.1"/>
		<path class="st1" d="M90.3,101.9c-15,0-27.3-12.8-27.3-27.8"/>
		<path class="st1" d="M90.2,107c-17.7,0-32.1-15.2-32.1-32.9"/>
		<path class="st1" d="M58.1,93c-2.4-4.9-4.2-13-4.2-18.9"/>
		<path class="st1" d="M90.3,112c-5.9,0-13.2-1.4-17.8-4.3"/>
	</g>
	<g>
		<path class="st1" d="M119.1,274.6c0-12.3,10-22.4,22.4-22.4c12.3,0,22.4,10,22.4,22.4"/>
		<path class="st1" d="M114.3,274.6c0-15,12.2-27.2,27.2-27.2c15,0,27.2,12.2,27.2,27.2"/>
		<path class="st1" d="M108.9,274.6c0-17.7,14.3-32,32-32s32,14.3,32,32"/>
		<path class="st1" d="M123.3,242.5c5.6-3.4,11.3-4.9,18.3-4.9c5.9,0,10.8,1.1,15.8,3.5"/>
		<path class="st1" d="M191,237.1c-7.3,0-13.3-4.2-13.3-11.6"/>
		<path class="st1" d="M191,242c-9.6,0-17.4-6.9-17.4-16.5"/>
		<path class="st1" d="M191,247.2c-12.3,0-22.4-9.3-22.4-21.6"/>
		<path class="st1" d="M190.8,252.1c-15,0-27-11.6-27-26.6"/>
		<path class="st1" d="M190.8,257c-17.7,0-31.8-13.9-31.8-31.5"/>
		<path class="st1" d="M190.8,262.1c-20.5,0-36.9-16.1-36.9-36.6"/>
		<path class="st1" d="M127.4,225.5c0-7.3,5.9-13.3,13.3-13.3s13.3,5.9,13.3,13.3"/>
		<path class="st1" d="M124.1,225.5c0-9.6,7.8-17.4,17.4-17.4c9.6,0,17.4,7.8,17.4,17.4"/>
		<path class="st1" d="M119.1,225.5c0-12.3,10-22.4,22.4-22.4c12.3,0,22.4,10,22.4,22.4"/>
		<path class="st1" d="M114.3,225.5c0-15,12.2-27.2,27.2-27.2c15,0,27.2,12.2,27.2,27.2"/>
		<path class="st1" d="M109.6,225.5c0-17.7,14.3-32,32-32s32,14.3,32,32"/>
		<path class="st1" d="M103.6,225.5c0-20.5,16.6-37,37-37s37,16.6,37,37"/>
		<path class="st1" d="M103.6,225.3c0,7.3-5.9,11.9-13.3,11.9"/>
		<path class="st1" d="M109.6,225.3c0,9.6-9.6,16.7-19.2,16.7"/>
		<path class="st1" d="M114.3,225.3c0,12.3-11.6,21.7-23.9,21.7"/>
		<path class="st1" d="M119.1,225.3c0,15-13.7,26.7-28.7,26.7"/>
		<path class="st1" d="M124.1,225.2c0,17.7-16.1,31.8-33.8,31.8"/>
		<path class="st1" d="M127.4,225.3c0,20.5-16.6,37-37,37"/>
		<path class="st1" d="M104.5,174.4c0,7.3-6.9,12.7-14.2,12.7"/>
		<path class="st1" d="M108.9,174.4c0,9.6-9.1,18-18.7,18"/>
		<path class="st1" d="M114.3,174.4c0,12.3-11.6,22.9-23.9,22.9"/>
		<path class="st1" d="M119.1,174.4c0,15-13.7,27.8-28.7,27.8"/>
		<path class="st1" d="M124,174.4c0,17.7-16.2,32.9-33.8,32.9"/>
		<path class="st1" d="M108.2,207.9c-4.9,2.4-11.9,4.4-17.8,4.4"/>
		<path class="st1" d="M128.2,174.4c0,5.9-1.5,13.8-4.4,18.5"/>
		<path class="st1" d="M190.8,187c-7.3,0-12.2-5.3-12.2-12.7"/>
		<path class="st1" d="M191,192.4c-9.6,0-18.1-8.4-18.1-18"/>
		<path class="st1" d="M191.1,197.3c-12.3,0-22.5-10.6-22.5-22.9"/>
		<path class="st1" d="M191.1,202.1c-15,0-27.3-12.8-27.3-27.8"/>
		<path class="st1" d="M191,207.3c-17.7,0-32.1-15.2-32.1-32.9"/>
		<path class="st1" d="M158.8,193.3c-2.4-4.9-4.2-13-4.2-18.9"/>
		<path class="st1" d="M191.1,212.4c-5.9,0-13.2-1.5-17.8-4.4"/>
	</g>
	<g>
		<path class="st1" d="M18.3,274.6c0-12.3,10-22.4,22.4-22.4s22.4,10,22.4,22.4"/>
		<path class="st1" d="M13.5,274.6c0-15,12.2-27.2,27.2-27.2s27.2,12.2,27.2,27.2"/>
		<path class="st1" d="M8.1,274.6c0-17.7,14.3-32,32-32s32,14.3,32,32"/>
		<path class="st1" d="M22.5,242.5c5.6-3.4,11.3-4.9,18.3-4.9c5.9,0,10.8,1.1,15.8,3.5"/>
		<path class="st1" d="M90.3,237.3c-7.3,0-13.4-4.4-13.4-11.7"/>
		<path class="st1" d="M90.3,242c-9.6,0-17.6-6.9-17.6-16.5"/>
		<path class="st1" d="M90.3,247c-12.3,0-22.5-9.1-22.5-21.5"/>
		<path class="st1" d="M90.3,252.1c-15,0-27.3-11.5-27.3-26.5"/>
		<path class="st1" d="M90.3,257c-17.7,0-32.2-13.8-32.2-31.5"/>
		<path class="st1" d="M90.3,262.4c-20.5,0-37.2-16.4-37.2-36.8"/>
		<path class="st1" d="M26.6,225.5c0-7.3,5.9-13.3,13.3-13.3s13.3,5.9,13.3,13.3"/>
		<path class="st1" d="M23.3,225.5c0-9.6,7.8-17.4,17.4-17.4s17.4,7.8,17.4,17.4"/>
		<path class="st1" d="M18.3,225.5c0-12.3,10-22.4,22.4-22.4s22.4,10,22.4,22.4"/>
		<path class="st1" d="M13.5,225.5c0-15,12.2-27.2,27.2-27.2s27.2,12.2,27.2,27.2"/>
		<path class="st1" d="M8.8,225.5c0-17.7,14.3-32,32-32s32,14.3,32,32"/>
		<path class="st1" d="M2.8,225.5c0-20.5,16.6-37,37-37s37,16.6,37,37"/>
		<path class="st1" d="M2.8,225.3c0,7.3-5.9,11.9-13.3,11.9"/>
		<path class="st1" d="M8.8,225.3c0,9.6-9.6,16.7-19.2,16.7"/>
		<path class="st1" d="M13.5,225.3c0,12.3-11.6,21.7-23.9,21.7"/>
		<path class="st1" d="M18.3,225.3c0,15-13.7,26.7-28.7,26.7"/>
		<path class="st1" d="M23.3,225.2c0,17.7-16.1,31.8-33.8,31.8"/>
		<path class="st1" d="M26.6,225.3c0,20.5-16.6,37-37,37"/>
		<path class="st1" d="M3.8,174.4c0,7.3-6.9,12.7-14.2,12.7"/>
		<path class="st1" d="M8.1,174.4c0,9.6-8.9,17.7-18.5,17.7"/>
		<path class="st1" d="M13.5,174.4c0,12.3-11.6,22.7-23.9,22.7"/>
		<path class="st1" d="M18.3,174.4c0,15-13.7,27.8-28.7,27.8"/>
		<path class="st1" d="M23.2,174.4c0,17.7-16,32.6-33.7,32.6"/>
		<path class="st1" d="M7.4,207.9c-4.9,2.4-11.9,4.4-17.8,4.4"/>
		<path class="st1" d="M27.4,174.4c0,5.9-1.5,13.8-4.4,18.5"/>
		<path class="st1" d="M90.3,187c-7.3,0-12.5-5.3-12.5-12.7"/>
		<path class="st1" d="M90.2,192.4c-9.6,0-18.1-8.4-18.1-18"/>
		<path class="st1" d="M90.3,197.3c-12.3,0-22.5-10.6-22.5-22.9"/>
		<path class="st1" d="M90.3,202.1c-15,0-27.3-12.8-27.3-27.8"/>
		<path class="st1" d="M90.2,207.3c-17.7,0-32.1-15.2-32.1-32.9"/>
		<path class="st1" d="M58.1,193.3c-2.4-4.9-4.2-13-4.2-18.9"/>
		<path class="st1" d="M90.3,212.3c-5.9,0-13.2-1.4-17.8-4.3"/>
	</g>
</g>
</svg>
