<?xml version="1.0" encoding="utf-8"?>
<!-- Generator: Adobe Illustrator 25.3.1, SVG Export Plug-In . SVG Version: 6.00 Build 0)  -->
<svg version="1.1" id="Layer_1" xmlns="http://www.w3.org/2000/svg" xmlns:xlink="http://www.w3.org/1999/xlink" x="0px" y="0px"
	 viewBox="0 0 198 270" style="enable-background:new 0 0 198 270;" xml:space="preserve">
<style type="text/css">
	.st0{fill-rule:evenodd;clip-rule:evenodd;fill:#FFFFFF;}
</style>
<path class="st0" d="M0-4.5c10.1,0,9.9,8,4.9,15c5.1-7,12.6-9.6,15.8,0c3.1,9.6-4.6,11.9-12.8,9.3c8.2,2.7,13.1,9.1,4.9,15
	C4.6,40.8,0,34.1,0,25.5c0,8.6-4.6,15.2-12.8,9.3c-8.2-6-3.3-12.3,4.9-15c-8.2,2.7-15.9,0.4-12.8-9.3c3.1-9.6,10.7-7,15.8,0
	C-9.9,3.5-10.1-4.5,0-4.5z M0,12.5c2,0,3.6,1.7,3.6,3.8S2,20.1,0,20.1s-3.6-1.7-3.6-3.8S-2,12.5,0,12.5z"/>
<path class="st0" d="M47.5,43c10.1,0,9.9,8,4.9,15c5.1-7,12.6-9.6,15.8,0c3.1,9.6-4.6,11.9-12.8,9.3c8.2,2.7,13.1,9.1,4.9,15
	c-8.2,6-12.8-0.7-12.8-9.3c0,8.6-4.6,15.2-12.8,9.3c-8.2-6-3.3-12.3,4.9-15C31.4,70,23.7,67.7,26.8,58c3.1-9.6,10.7-7,15.8,0
	C37.5,51,37.3,43,47.5,43z M47.5,59.9c2,0,3.6,1.7,3.6,3.8c0,2.1-1.6,3.8-3.6,3.8s-3.6-1.7-3.6-3.8C43.9,61.7,45.5,59.9,47.5,59.9z"
	/>
<path class="st0" d="M0,90.5c10.1,0,9.9,8,4.9,15c5.1-7,12.6-9.6,15.8,0c3.1,9.6-4.6,11.9-12.8,9.3c8.2,2.7,13.1,9.1,4.9,15
	c-8.2,6-12.8-0.7-12.8-9.3c0,8.6-4.6,15.2-12.8,9.3c-8.2-6-3.3-12.3,4.9-15c-8.2,2.7-15.9,0.4-12.8-9.3c3.1-9.6,10.7-7,15.8,0
	C-9.9,98.5-10.1,90.5,0,90.5z M0,107.4c2,0,3.6,1.7,3.6,3.8S2,115.1,0,115.1s-3.6-1.7-3.6-3.8S-2,107.4,0,107.4z"/>
<path class="st0" d="M95-4.5c10.1,0,9.9,8,4.9,15c5.1-7,12.6-9.6,15.8,0c3.1,9.6-4.6,11.9-12.8,9.3c8.2,2.7,13.1,9.1,4.9,15
	c-8.2,6-12.8-0.7-12.8-9.3c0,8.6-4.6,15.2-12.8,9.3c-8.2-6-3.3-12.3,4.9-15c-8.2,2.7-15.9,0.4-12.8-9.3c3.1-9.6,10.7-7,15.8,0
	C85,3.5,84.8-4.5,95-4.5z M95,12.5c2,0,3.6,1.7,3.6,3.8S97,20.1,95,20.1s-3.6-1.7-3.6-3.8S93,12.5,95,12.5z"/>
<path class="st0" d="M189.9-4.5c10.1,0,9.9,8,4.9,15c5.1-7,12.6-9.6,15.8,0c3.1,9.6-4.6,11.9-12.8,9.3c8.2,2.7,13.1,9.1,4.9,15
	c-8.2,6-12.8-0.7-12.8-9.3c0,8.6-4.6,15.2-12.8,9.3c-8.2-6-3.3-12.3,4.9-15c-8.2,2.7-15.9,0.4-12.8-9.3c3.1-9.6,10.7-7,15.8,0
	C180,3.5,179.8-4.5,189.9-4.5z M189.9,12.5c2,0,3.6,1.7,3.6,3.8s-1.6,3.8-3.6,3.8s-3.6-1.7-3.6-3.8S187.9,12.5,189.9,12.5z"/>
<path class="st0" d="M142.4,43c10.1,0,9.9,8,4.9,15c5.1-7,12.6-9.6,15.8,0c3.1,9.6-4.6,11.9-12.8,9.3c8.2,2.7,13.1,9.1,4.9,15
	c-8.2,6-12.8-0.7-12.8-9.3c0,8.6-4.6,15.2-12.8,9.3c-8.2-6-3.3-12.3,4.9-15c-8.2,2.7-15.9,0.4-12.8-9.3c3.1-9.6,10.7-7,15.8,0
	C132.5,51,132.3,43,142.4,43z M142.4,59.9c2,0,3.6,1.7,3.6,3.8c0,2.1-1.6,3.8-3.6,3.8s-3.6-1.7-3.6-3.8
	C138.8,61.7,140.5,59.9,142.4,59.9z"/>
<path class="st0" d="M95,90.5c10.1,0,9.9,8,4.9,15c5.1-7,12.6-9.6,15.8,0c3.1,9.6-4.6,11.9-12.8,9.3c8.2,2.7,13.1,9.1,4.9,15
	c-8.2,6-12.8-0.7-12.8-9.3c0,8.6-4.6,15.2-12.8,9.3c-8.2-6-3.3-12.3,4.9-15c-8.2,2.7-15.9,0.4-12.8-9.3c3.1-9.6,10.7-7,15.8,0
	C85,98.5,84.8,90.5,95,90.5z M95,107.4c2,0,3.6,1.7,3.6,3.8S97,115,95,115s-3.6-1.7-3.6-3.8S93,107.4,95,107.4z"/>
<path class="st0" d="M189.9,90.5c10.1,0,9.9,8,4.9,15c5.1-7,12.6-9.6,15.8,0c3.1,9.6-4.6,11.9-12.8,9.3c8.2,2.7,13.1,9.1,4.9,15
	c-8.2,6-12.8-0.7-12.8-9.3c0,8.6-4.6,15.2-12.8,9.3c-8.2-6-3.3-12.3,4.9-15c-8.2,2.7-15.9,0.4-12.8-9.3c3.1-9.6,10.7-7,15.8,0
	C180,98.5,179.8,90.5,189.9,90.5z M189.9,107.4c2,0,3.6,1.7,3.6,3.8s-1.6,3.8-3.6,3.8s-3.6-1.7-3.6-3.8S187.9,107.4,189.9,107.4z"/>
<path class="st0" d="M47.5,138c10.1,0,9.9,8,4.9,15c5.1-7,12.6-9.6,15.8,0c3.1,9.6-4.6,11.9-12.8,9.3c8.2,2.7,13.1,9.1,4.9,15
	c-8.2,6-12.8-0.7-12.8-9.3c0,8.6-4.6,15.2-12.8,9.3c-8.2-6-3.3-12.3,4.9-15c-8.2,2.7-15.9,0.4-12.8-9.3c3.1-9.6,10.7-7,15.8,0
	C37.5,146,37.3,138,47.5,138z M47.5,154.9c2,0,3.6,1.7,3.6,3.8s-1.6,3.8-3.6,3.8s-3.6-1.7-3.6-3.8S45.5,154.9,47.5,154.9z"/>
<path class="st0" d="M95,185.4c10.1,0,9.9,8,4.9,15c5.1-7,12.6-9.6,15.8,0c3.1,9.6-4.6,11.9-12.8,9.3c8.2,2.7,13.1,9.1,4.9,15
	c-8.2,6-12.8-0.7-12.8-9.3c0,8.6-4.6,15.2-12.8,9.3c-8.2-6-3.3-12.3,4.9-15c-8.2,2.7-15.9,0.4-12.8-9.3c3.1-9.6,10.7-7,15.8,0
	C85,193.5,84.8,185.4,95,185.4z M95,202.4c2,0,3.6,1.7,3.6,3.8S97,210,95,210s-3.6-1.7-3.6-3.8C91.4,204.1,93,202.4,95,202.4z"/>
<path class="st0" d="M0,185.4c10.1,0,9.9,8,4.9,15c5.1-7,12.6-9.6,15.8,0c3.1,9.6-4.6,11.9-12.8,9.3c8.2,2.7,13.1,9.1,4.9,15
	C4.6,230.7,0,224,0,215.4c0,8.6-4.6,15.2-12.8,9.3c-8.2-6-3.3-12.3,4.9-15c-8.2,2.7-15.9,0.4-12.8-9.3c3.1-9.6,10.7-7,15.8,0
	C-9.9,193.5-10.1,185.4,0,185.4z M0,202.4c2,0,3.6,1.7,3.6,3.8S2,210,0,210s-3.6-1.7-3.6-3.8C-3.6,204.1-2,202.4,0,202.4z"/>
<path class="st0" d="M47.5,232.9c10.1,0,9.9,8,4.9,15c5.1-7,12.6-9.6,15.8,0c3.1,9.6-4.6,11.9-12.8,9.3c8.2,2.7,13.1,9.1,4.9,15
	c-8.2,6-12.8-0.7-12.8-9.3c0,8.6-4.6,15.2-12.8,9.3c-8.2-6-3.3-12.3,4.9-15c-8.2,2.7-15.9,0.4-12.8-9.3c3.1-9.6,10.7-7,15.8,0
	C37.5,240.9,37.3,232.9,47.5,232.9z M47.5,249.9c2,0,3.6,1.7,3.6,3.8s-1.6,3.8-3.6,3.8s-3.6-1.7-3.6-3.8S45.5,249.9,47.5,249.9z"/>
<path class="st0" d="M142.4,138c10.1,0,9.9,8,4.9,15c5.1-7,12.6-9.6,15.8,0c3.1,9.6-4.6,11.9-12.8,9.3c8.2,2.7,13.1,9.1,4.9,15
	c-8.2,6-12.8-0.7-12.8-9.3c0,8.6-4.6,15.2-12.8,9.3c-8.2-6-3.3-12.3,4.9-15c-8.2,2.7-15.9,0.4-12.8-9.3c3.1-9.6,10.7-7,15.8,0
	C132.5,146,132.3,138,142.4,138z M142.4,154.9c2,0,3.6,1.7,3.6,3.8s-1.6,3.8-3.6,3.8s-3.6-1.7-3.6-3.8S140.5,154.9,142.4,154.9z"/>
<path class="st0" d="M189.9,185.4c10.1,0,9.9,8,4.9,15c5.1-7,12.6-9.6,15.8,0c3.1,9.6-4.6,11.9-12.8,9.3c8.2,2.7,13.1,9.1,4.9,15
	c-8.2,6-12.8-0.7-12.8-9.3c0,8.6-4.6,15.2-12.8,9.3c-8.2-6-3.3-12.3,4.9-15c-8.2,2.7-15.9,0.4-12.8-9.3c3.1-9.6,10.7-7,15.8,0
	C180,193.5,179.8,185.4,189.9,185.4z M189.9,202.4c2,0,3.6,1.7,3.6,3.8s-1.6,3.8-3.6,3.8s-3.6-1.7-3.6-3.8
	C186.3,204.1,187.9,202.4,189.9,202.4z"/>
<path class="st0" d="M142.4,232.9c10.1,0,9.9,8,4.9,15c5.1-7,12.6-9.6,15.8,0c3.1,9.6-4.6,11.9-12.8,9.3c8.2,2.7,13.1,9.1,4.9,15
	c-8.2,6-12.8-0.7-12.8-9.3c0,8.6-4.6,15.2-12.8,9.3c-8.2-6-3.3-12.3,4.9-15c-8.2,2.7-15.9,0.4-12.8-9.3c3.1-9.6,10.7-7,15.8,0
	C132.5,240.9,132.3,232.9,142.4,232.9z M142.4,249.9c2,0,3.6,1.7,3.6,3.8s-1.6,3.8-3.6,3.8s-3.6-1.7-3.6-3.8
	S140.5,249.9,142.4,249.9z"/>
</svg>
