<?xml version="1.0" encoding="utf-8"?>
<!-- Generator: Adobe Illustrator 25.4.1, SVG Export Plug-In . SVG Version: 6.00 Build 0)  -->
<svg version="1.1" id="Layer_1" xmlns="http://www.w3.org/2000/svg" xmlns:xlink="http://www.w3.org/1999/xlink" x="0px" y="0px"
	 viewBox="0 0 825 1200" style="enable-background:new 0 0 825 1200;" xml:space="preserve">
<style type="text/css">
	.st0{opacity:0.15;enable-background:new    ;}
	.st1{fill:#BA8C47;}
	.st2{fill:#AD7E36;}
	.st3{fill:#375C1F;}
	.st4{fill:#497A29;}
	.st5{fill:#3A6121;}
	.st6{fill:#5C9933;}
	.st7{fill:#437025;}
	.st8{opacity:0.1;enable-background:new    ;}
	.st9{fill:#B14206;}
	.st10{fill:#A33D06;}
	.st11{fill:#EC5809;}
	.st12{fill:#DB5208;}
	.st13{fill:#2C4A19;}
	.st14{fill:#D9A353;}
	.st15{fill:#B38237;}
</style>
<path class="st0" d="M743.8,913.5v-14.2c0-9.6-8.5-17.4-19-17.4h-573c-10.5,0-19,7.8-19,17.4v14.2c0,9.6,8.5,17.4,19,17.4h107.6
	l-126.2,495.8c-2,7.8,3.3,15.6,11.8,17.4l5.3,1.1c8.5,1.8,17-3,19-10.8l74.2-291.5c1.5,0.3,3,0.5,4.6,0.5h381.5
	c1.2,0,2.4-0.1,3.6-0.3l74.2,291.4c2,7.8,10.5,12.6,19,10.8l5.3-1.1c8.5-1.8,13.8-9.6,11.8-17.4L617.1,930.9h107.6
	C735.3,930.9,743.8,923.1,743.8,913.5z M611.2,1057H265.3l32.1-126.1h281.7L611.2,1057z"/>
<g>
	<path class="st1" d="M706.2,1466.1c-6.8,0-12.7-4.7-14.3-11.3l-73.4-315.3c-0.1-0.5-0.5-0.8-1-0.8c-0.1,0-0.1,0-0.2,0
		c-1.2,0.2-2.3,0.3-3.4,0.3H236.6c-1.4,0-2.8-0.2-4.3-0.5c-0.1,0-0.1,0-0.2,0c-0.5,0-0.9,0.3-1,0.8l-73.4,315.5
		c-1.6,6.7-7.4,11.3-14.3,11.3c-1.1,0-2.2-0.1-3.3-0.4l-5.2-1.2c-7.9-1.8-12.8-9.7-11-17.6l129.9-558.3c1.6-6.7,7.4-11.3,14.3-11.3
		c1.1,0,2.2,0.1,3.3,0.4l5.2,1.2c3.8,0.9,7.1,3.2,9.1,6.5c2.1,3.3,2.7,7.3,1.8,11.1l-34.9,149.9c-0.1,0.3,0,0.6,0.2,0.8
		c0.2,0.2,0.5,0.4,0.8,0.4h342.2c0.3,0,0.6-0.1,0.8-0.4c0.2-0.2,0.3-0.6,0.2-0.8l-34.8-150c-0.9-3.8-0.2-7.7,1.8-11.1
		c2.1-3.3,5.3-5.6,9.1-6.5l5.2-1.2c1.1-0.3,2.2-0.4,3.3-0.4c6.8,0,12.7,4.7,14.3,11.3l129.9,558.3c1.8,7.9-3.1,15.8-11,17.6
		l-5.2,1.2C708.4,1466,707.3,1466.1,706.2,1466.1L706.2,1466.1z"/>
	<path class="st2" d="M581.5,878.2c6.4,0,11.8,4.3,13.3,10.6l129.9,558.3c0.8,3.6,0.2,7.2-1.7,10.3c-1.9,3.1-4.9,5.3-8.5,6.1
		l-5.2,1.2c-1,0.2-2.1,0.4-3.1,0.4c-6.4,0-11.8-4.3-13.3-10.6l-73.4-315.3c-0.2-0.9-1-1.5-1.9-1.5c-0.1,0-0.2,0-0.3,0
		c-1.2,0.2-2.2,0.3-3.2,0.3H236.6c-1.3,0-2.7-0.2-4.1-0.5c-0.1,0-0.3,0-0.4,0c-0.9,0-1.7,0.6-1.9,1.5l-73.4,315.5
		c-1.4,6.2-6.9,10.6-13.3,10.6c-1,0-2.1-0.1-3.1-0.4l-5.2-1.2c-3.6-0.8-6.6-3-8.5-6.1s-2.5-6.8-1.7-10.3l129.9-558.3
		c1.4-6.2,6.9-10.6,13.3-10.6c1,0,2.1,0.1,3.1,0.4l5.2,1.2c7.3,1.7,11.9,9.1,10.2,16.4l-34.9,149.9c-0.1,0.6,0,1.2,0.4,1.7
		s1,0.8,1.6,0.8H596c0.6,0,1.2-0.3,1.6-0.8c0.4-0.5,0.5-1.1,0.4-1.7l-35-149.9c-1.7-7.3,2.9-14.7,10.2-16.4l5.2-1.2
		C579.4,878.4,580.5,878.2,581.5,878.2 M581.5,876.2c-1.2,0-2.4,0.1-3.6,0.4l-5.2,1.2c-8.4,2-13.7,10.4-11.7,18.8l34.9,149.9H253.7
		l34.9-149.9c2-8.4-3.3-16.8-11.7-18.8l-5.2-1.2c-1.2-0.3-2.4-0.4-3.6-0.4c-7.1,0-13.6,4.9-15.2,12.1L123,1446.6
		c-2,8.4,3.3,16.8,11.7,18.8l5.2,1.2c1.2,0.3,2.4,0.4,3.6,0.4c7.1,0,13.6-4.9,15.2-12.1l73.4-315.5c1.5,0.3,3,0.5,4.5,0.5H614
		c1.2,0,2.4-0.1,3.6-0.3l73.4,315.3c1.7,7.2,8.1,12.1,15.2,12.1c1.2,0,2.4-0.1,3.6-0.4l5.2-1.2c8.4-2,13.7-10.4,11.7-18.8
		l-130-558.2C595.1,881.1,588.6,876.2,581.5,876.2L581.5,876.2z"/>
</g>
<polygon class="st0" points="482.9,603.8 592.1,501.3 594.7,498.8 694.6,410.3 643.3,430.5 560.6,453.3 486.4,513.8 486.7,470.8 
	554.4,324 547.3,327.9 527.7,332.3 474.9,396.9 473.9,382.3 472.6,343.1 417.2,272.1 405.9,387.8 382.3,363.5 313.7,327.2 
	328.4,350.7 384,488.5 318.1,440.8 258.4,428.1 240.9,422.2 390.3,567.2 390.2,583.3 378.5,620.5 470.8,625.9 471.1,629.4 
	484.4,626.7 493.1,627.2 "/>
<path class="st0" d="M590.2,623.2l-301.5-1.7c-0.9,0-1.7,0.9-1.5,1.8l14.7,75.2c0.1,0.7,0.7,1.2,1.5,1.2h5c0.7,0,1.3,0.5,1.5,1.2
	l31.1,155c0.1,0.7,0.8,1.2,1.5,1.2l187.5,0.1c0.7,0,1.3-0.5,1.5-1.2l30.1-155c0.1-0.7,0.7-1.2,1.5-1.2h6.8c0.7,0,1.3-0.4,1.4-1.1
	l20.5-73.5C591.9,624.2,591.1,623.2,590.2,623.2z"/>
<polygon class="st3" points="360.1,600.3 372.7,544.4 209.1,393.7 286.9,409.8 367,466.2 329.4,361.5 292.2,296.3 357.6,327.1 
	383.5,353 396,229.1 455.4,304.2 459.6,362.9 517.7,293.6 545,287.7 472.5,442 465.4,493.5 553.9,423.2 683.7,388.4 448,602.3 "/>
<g>
	<path class="st4" d="M368.1,480.4L291.2,295l73.1,52.5l60,86.4c0.1,0.1,0.2,0.2,0.4,0.2l0,0c0.2,0,0.3-0.1,0.4-0.2l91.5-132.2
		l29.3-15.8l-74,155.9c0,0.1,0,0.1,0,0.2l-0.4,62.9L441.1,533L368.1,480.4z"/>
	<path class="st5" d="M545,287.1l-73.3,154.5c-0.1,0.1-0.1,0.3-0.1,0.4l-0.4,62.7l-29.9,27.7l-72.7-52.3l-76.2-183.7l71.6,51.4
		l60,86.3c0.2,0.3,0.5,0.4,0.8,0.4l0,0c0.3,0,0.6-0.2,0.8-0.4L517.1,302L545,287.1 M547.2,284.7l-30.8,16.6l-91.6,132.3l-60.1-86.5
		l-74.6-53.6l77.7,187.2l73.5,53l30.9-28.5l0.4-63.1L547.2,284.7L547.2,284.7z"/>
</g>
<g>
	<path class="st6" d="M354,601.9l12.8-39.2c0,0,0-0.1,0-0.2v-17.3c0-0.1-0.1-0.3-0.2-0.4L203.8,391.1l87.6,28.6l150,110.9
		c0.1,0.1,0.2,0.1,0.3,0.1c0.1,0,0.2,0,0.3-0.1l108.8-95.2L699,378.7l-108.7,93.7L468,584.1c-0.2,0.1-0.2,0.4-0.1,0.6l11,24.3
		L354,601.9z"/>
	<path class="st7" d="M696.5,380.1L590,472L467.7,583.7c-0.3,0.3-0.4,0.8-0.2,1.1l10.6,23.6l-123.3-7l12.6-38.6c0-0.1,0-0.2,0-0.3
		v-17.3c0-0.3-0.1-0.5-0.3-0.7L205.8,392.2l85.4,27.9l150,110.8c0.2,0.1,0.4,0.2,0.6,0.2s0.5-0.1,0.7-0.2l108.8-95.2L696.5,380.1
		 M701.5,377.2l-150.9,57.7l-108.9,95.3l-150.1-111l-89.8-29.3l164.5,155.4v17.3l-13,39.8l126.3,7.2l-11.3-25.1l122.4-111.7
		L701.5,377.2L701.5,377.2z"/>
</g>
<polygon class="st8" points="455.4,611.9 452.4,580.2 598.8,465.4 468.3,584.5 478.5,607.3 "/>
<g>
	<polygon class="st9" points="274.8,606.8 563.4,608.7 517.8,856.6 325.1,857.1 	"/>
	<path class="st10" d="M275.4,607.3l287.4,1.9l-45.4,246.9l-191.9,0.5L275.4,607.3 M274.2,606.3l50.5,251.3l193.6-0.5L564,608.2
		L274.2,606.3L274.2,606.3z"/>
</g>
<polygon class="st8" points="551.4,676.7 547.8,696 291.2,691.3 288.3,676.7 "/>
<g>
	<path class="st11" d="M277,676.2c-0.5,0-1-0.4-1.1-0.9l-15.6-78.4c-0.1-0.3,0-0.7,0.2-0.9s0.5-0.4,0.9-0.4l319.6,1.8
		c0.4,0,0.7,0.2,0.9,0.4c0.2,0.3,0.3,0.6,0.2,1l-21.7,76.5c-0.1,0.5-0.6,0.8-1.1,0.8H277V676.2z"/>
	<path class="st12" d="M261.4,595.1v1l319.6,1.8c0.3,0,0.4,0.2,0.5,0.3s0.2,0.3,0.1,0.5l-21.7,76.5c-0.1,0.3-0.3,0.5-0.6,0.5H277
		c-0.3,0-0.6-0.2-0.6-0.5l-15.6-78.4c-0.1-0.3,0.1-0.4,0.1-0.5c0.1-0.1,0.2-0.2,0.5-0.2V595.1 M261.4,595.1c-1,0-1.8,0.9-1.6,1.9
		l15.6,78.4c0.2,0.8,0.8,1.3,1.6,1.3h282.4c0.7,0,1.4-0.5,1.6-1.2l21.7-76.5c0.3-1-0.5-2.1-1.6-2.1L261.4,595.1L261.4,595.1
		L261.4,595.1z"/>
</g>
<polygon class="st13" points="381.7,371.5 396,229.1 457,305.2 459.7,383.1 424.8,433.6 "/>
<polygon class="st8" points="451.7,521.4 455.3,439.5 518.7,344.7 472.5,442 472.2,503.1 "/>
<g>
	<path class="st14" d="M141.3,909.6c-10.1,0-18.3-8.2-18.3-18.3V876c0-10.1,8.2-18.3,18.3-18.3h566.9c10.1,0,18.3,8.2,18.3,18.3
		v15.3c0,10.1-8.2,18.3-18.3,18.3H141.3z"/>
	<path class="st15" d="M708.3,858.1c9.8,0,17.8,8,17.8,17.8v15.3c0,9.8-8,17.8-17.8,17.8h-567c-9.8,0-17.8-8-17.8-17.8v-15.3
		c0-9.8,8-17.8,17.8-17.8H708.3 M708.3,857.1h-567c-10.4,0-18.8,8.4-18.8,18.8v15.3c0,10.4,8.4,18.8,18.8,18.8h566.9
		c10.4,0,18.8-8.4,18.8-18.8v-15.3C727.1,865.5,718.7,857.1,708.3,857.1L708.3,857.1z"/>
</g>
<polygon class="st8" points="247.8,910.1 244.3,925.3 281.9,925.3 285.2,910.1 "/>
<polygon class="st8" points="567.7,925.3 564.2,910.1 601.8,910.1 605.1,925.3 "/>
</svg>
